# xmcd CD database file
#
# Track frame offsets:
#	150
#	27328
#	57882
#	84523
#	106625
#	141562
#	169397
#	182590
#	214974
#	225719
#	255949
#
# Disc length: 3669 seconds
#
# Revision: 0
# Processed by: cddbd v1.5.2PL0 Copyright (c) Steve Scherf et al.
# Submitted via: CDex 1.77
#
DISCID=920e530b
DTITLE=Ziv Ravitz - Images From Home
DYEAR=2009
DGENRE=Jazz
TTITLE0=klavan
TTITLE1=lullaby for emma 1
TTITLE2=what do your eyes say (Mordechai Zayira)
TTITLE3=cinema G
TTITLE4=cry for peace
TTITLE5=the D between us
TTITLE6=on the way
TTITLE7=avishkess
TTITLE8=slowing down
TTITLE9=slow dancing
TTITLE10=lullaby for emma 2
EXTD=YEAR: 2009
EXTT0=
EXTT1=
EXTT2=
EXTT3=
EXTT4=
EXTT5=
EXTT6=
EXTT7=
EXTT8=
EXTT9=
EXTT10=
PLAYORDER=
